<mxfile host="app.diagrams.net" modified="2024-07-19T09:31:02.767Z" agent="Mozilla/5.0 (Windows NT 10.0; Win64; x64) AppleWebKit/537.36 (KHTML, like Gecko) Chrome/126.0.0.0 Safari/537.36 Edg/126.0.0.0" etag="vDhWgfby7HrOGx91eVgC" version="24.7.1" type="device">
  <diagram name="Page-1" id="ioDznutZsX1zTIY8pMCe">
    <mxGraphModel dx="1205" dy="787" grid="1" gridSize="10" guides="1" tooltips="1" connect="1" arrows="1" fold="1" page="1" pageScale="1" pageWidth="827" pageHeight="1169" math="0" shadow="0">
      <root>
        <mxCell id="0" />
        <mxCell id="1" parent="0" />
        <mxCell id="XZhqsZLyM7Ng1Bk5a_Lx-7" style="edgeStyle=orthogonalEdgeStyle;rounded=0;orthogonalLoop=1;jettySize=auto;html=1;entryX=0.5;entryY=0;entryDx=0;entryDy=0;" edge="1" parent="1" source="XZhqsZLyM7Ng1Bk5a_Lx-1" target="XZhqsZLyM7Ng1Bk5a_Lx-2">
          <mxGeometry relative="1" as="geometry" />
        </mxCell>
        <mxCell id="XZhqsZLyM7Ng1Bk5a_Lx-1" value="START" style="ellipse;whiteSpace=wrap;html=1;" vertex="1" parent="1">
          <mxGeometry x="354" y="60" width="120" height="80" as="geometry" />
        </mxCell>
        <mxCell id="XZhqsZLyM7Ng1Bk5a_Lx-8" style="edgeStyle=orthogonalEdgeStyle;rounded=0;orthogonalLoop=1;jettySize=auto;html=1;entryX=0.5;entryY=0;entryDx=0;entryDy=0;" edge="1" parent="1" source="XZhqsZLyM7Ng1Bk5a_Lx-2" target="XZhqsZLyM7Ng1Bk5a_Lx-3">
          <mxGeometry relative="1" as="geometry" />
        </mxCell>
        <mxCell id="XZhqsZLyM7Ng1Bk5a_Lx-2" value="INPUT sales" style="shape=parallelogram;perimeter=parallelogramPerimeter;whiteSpace=wrap;html=1;fixedSize=1;" vertex="1" parent="1">
          <mxGeometry x="290" y="190" width="256" height="60" as="geometry" />
        </mxCell>
        <mxCell id="XZhqsZLyM7Ng1Bk5a_Lx-9" style="edgeStyle=orthogonalEdgeStyle;rounded=0;orthogonalLoop=1;jettySize=auto;html=1;entryX=0.5;entryY=0;entryDx=0;entryDy=0;" edge="1" parent="1" source="XZhqsZLyM7Ng1Bk5a_Lx-3" target="XZhqsZLyM7Ng1Bk5a_Lx-4">
          <mxGeometry relative="1" as="geometry" />
        </mxCell>
        <mxCell id="XZhqsZLyM7Ng1Bk5a_Lx-42" style="edgeStyle=orthogonalEdgeStyle;rounded=0;orthogonalLoop=1;jettySize=auto;html=1;" edge="1" parent="1" source="XZhqsZLyM7Ng1Bk5a_Lx-3" target="XZhqsZLyM7Ng1Bk5a_Lx-32">
          <mxGeometry relative="1" as="geometry" />
        </mxCell>
        <mxCell id="XZhqsZLyM7Ng1Bk5a_Lx-3" value="IF&amp;nbsp;&lt;div&gt;sales &amp;gt; 60000&lt;/div&gt;&lt;div&gt;?&lt;/div&gt;" style="rhombus;whiteSpace=wrap;html=1;" vertex="1" parent="1">
          <mxGeometry x="340" y="310" width="114" height="110" as="geometry" />
        </mxCell>
        <mxCell id="XZhqsZLyM7Ng1Bk5a_Lx-10" style="edgeStyle=orthogonalEdgeStyle;rounded=0;orthogonalLoop=1;jettySize=auto;html=1;entryX=0.5;entryY=0;entryDx=0;entryDy=0;" edge="1" parent="1" source="XZhqsZLyM7Ng1Bk5a_Lx-4" target="XZhqsZLyM7Ng1Bk5a_Lx-5">
          <mxGeometry relative="1" as="geometry" />
        </mxCell>
        <mxCell id="XZhqsZLyM7Ng1Bk5a_Lx-41" style="edgeStyle=orthogonalEdgeStyle;rounded=0;orthogonalLoop=1;jettySize=auto;html=1;entryX=0;entryY=0.75;entryDx=0;entryDy=0;" edge="1" parent="1" source="XZhqsZLyM7Ng1Bk5a_Lx-4" target="XZhqsZLyM7Ng1Bk5a_Lx-33">
          <mxGeometry relative="1" as="geometry" />
        </mxCell>
        <mxCell id="XZhqsZLyM7Ng1Bk5a_Lx-4" value="IF&amp;nbsp;&lt;div&gt;saels &amp;gt; 40000&lt;/div&gt;&lt;div&gt;?&lt;/div&gt;" style="rhombus;whiteSpace=wrap;html=1;" vertex="1" parent="1">
          <mxGeometry x="330" y="490" width="124" height="110" as="geometry" />
        </mxCell>
        <mxCell id="XZhqsZLyM7Ng1Bk5a_Lx-38" style="edgeStyle=orthogonalEdgeStyle;rounded=0;orthogonalLoop=1;jettySize=auto;html=1;entryX=0.5;entryY=0;entryDx=0;entryDy=0;" edge="1" parent="1" source="XZhqsZLyM7Ng1Bk5a_Lx-5" target="XZhqsZLyM7Ng1Bk5a_Lx-37">
          <mxGeometry relative="1" as="geometry" />
        </mxCell>
        <mxCell id="XZhqsZLyM7Ng1Bk5a_Lx-5" value="IF&amp;nbsp;&lt;div&gt;sales &amp;gt; 20000&lt;/div&gt;&lt;div&gt;?&lt;/div&gt;" style="rhombus;whiteSpace=wrap;html=1;" vertex="1" parent="1">
          <mxGeometry x="340" y="660" width="114" height="110" as="geometry" />
        </mxCell>
        <mxCell id="XZhqsZLyM7Ng1Bk5a_Lx-48" style="edgeStyle=orthogonalEdgeStyle;rounded=0;orthogonalLoop=1;jettySize=auto;html=1;" edge="1" parent="1" source="XZhqsZLyM7Ng1Bk5a_Lx-6">
          <mxGeometry relative="1" as="geometry">
            <mxPoint x="875" y="960" as="targetPoint" />
          </mxGeometry>
        </mxCell>
        <mxCell id="XZhqsZLyM7Ng1Bk5a_Lx-6" value="" style="ellipse;whiteSpace=wrap;html=1;aspect=fixed;" vertex="1" parent="1">
          <mxGeometry x="860" y="570" width="30" height="30" as="geometry" />
        </mxCell>
        <mxCell id="XZhqsZLyM7Ng1Bk5a_Lx-14" value="END" style="ellipse;whiteSpace=wrap;html=1;" vertex="1" parent="1">
          <mxGeometry x="815" y="1060" width="120" height="80" as="geometry" />
        </mxCell>
        <mxCell id="XZhqsZLyM7Ng1Bk5a_Lx-22" value="YES" style="text;html=1;align=center;verticalAlign=middle;resizable=0;points=[];autosize=1;strokeColor=none;fillColor=none;" vertex="1" parent="1">
          <mxGeometry x="456" y="330" width="50" height="30" as="geometry" />
        </mxCell>
        <mxCell id="XZhqsZLyM7Ng1Bk5a_Lx-23" value="YES" style="text;html=1;align=center;verticalAlign=middle;resizable=0;points=[];autosize=1;strokeColor=none;fillColor=none;" vertex="1" parent="1">
          <mxGeometry x="440" y="502.5" width="50" height="30" as="geometry" />
        </mxCell>
        <mxCell id="XZhqsZLyM7Ng1Bk5a_Lx-24" value="YES" style="text;html=1;align=center;verticalAlign=middle;resizable=0;points=[];autosize=1;strokeColor=none;fillColor=none;" vertex="1" parent="1">
          <mxGeometry x="454" y="677.5" width="50" height="30" as="geometry" />
        </mxCell>
        <mxCell id="XZhqsZLyM7Ng1Bk5a_Lx-25" value="NO" style="text;html=1;align=center;verticalAlign=middle;resizable=0;points=[];autosize=1;strokeColor=none;fillColor=none;" vertex="1" parent="1">
          <mxGeometry x="398" y="430" width="40" height="30" as="geometry" />
        </mxCell>
        <mxCell id="XZhqsZLyM7Ng1Bk5a_Lx-26" value="NO" style="text;html=1;align=center;verticalAlign=middle;resizable=0;points=[];autosize=1;strokeColor=none;fillColor=none;" vertex="1" parent="1">
          <mxGeometry x="394" y="610" width="40" height="30" as="geometry" />
        </mxCell>
        <mxCell id="XZhqsZLyM7Ng1Bk5a_Lx-30" value="NO" style="text;html=1;align=center;verticalAlign=middle;resizable=0;points=[];autosize=1;strokeColor=none;fillColor=none;" vertex="1" parent="1">
          <mxGeometry x="414" y="770" width="40" height="30" as="geometry" />
        </mxCell>
        <mxCell id="XZhqsZLyM7Ng1Bk5a_Lx-32" value="Commission = sales * 0.1" style="rounded=0;whiteSpace=wrap;html=1;" vertex="1" parent="1">
          <mxGeometry x="560" y="330" width="150" height="60" as="geometry" />
        </mxCell>
        <mxCell id="XZhqsZLyM7Ng1Bk5a_Lx-44" style="edgeStyle=orthogonalEdgeStyle;rounded=0;orthogonalLoop=1;jettySize=auto;html=1;entryX=-0.022;entryY=0.274;entryDx=0;entryDy=0;entryPerimeter=0;" edge="1" parent="1" source="XZhqsZLyM7Ng1Bk5a_Lx-33" target="XZhqsZLyM7Ng1Bk5a_Lx-6">
          <mxGeometry relative="1" as="geometry">
            <mxPoint x="795.9866220735787" y="530.0434782608695" as="targetPoint" />
          </mxGeometry>
        </mxCell>
        <mxCell id="XZhqsZLyM7Ng1Bk5a_Lx-33" value="Commission = sales * 0.7" style="rounded=0;whiteSpace=wrap;html=1;" vertex="1" parent="1">
          <mxGeometry x="560" y="502.5" width="150" height="60" as="geometry" />
        </mxCell>
        <mxCell id="XZhqsZLyM7Ng1Bk5a_Lx-45" style="edgeStyle=orthogonalEdgeStyle;rounded=0;orthogonalLoop=1;jettySize=auto;html=1;entryX=0;entryY=0.5;entryDx=0;entryDy=0;" edge="1" parent="1" source="XZhqsZLyM7Ng1Bk5a_Lx-34" target="XZhqsZLyM7Ng1Bk5a_Lx-6">
          <mxGeometry relative="1" as="geometry">
            <mxPoint x="781.2380952380952" y="708.0952380952383" as="targetPoint" />
          </mxGeometry>
        </mxCell>
        <mxCell id="XZhqsZLyM7Ng1Bk5a_Lx-34" value="Commission = sales * 0.4" style="rounded=0;whiteSpace=wrap;html=1;" vertex="1" parent="1">
          <mxGeometry x="550" y="677.5" width="150" height="60" as="geometry" />
        </mxCell>
        <mxCell id="XZhqsZLyM7Ng1Bk5a_Lx-47" style="edgeStyle=orthogonalEdgeStyle;rounded=0;orthogonalLoop=1;jettySize=auto;html=1;entryX=0;entryY=1;entryDx=0;entryDy=0;" edge="1" parent="1" source="XZhqsZLyM7Ng1Bk5a_Lx-37" target="XZhqsZLyM7Ng1Bk5a_Lx-6">
          <mxGeometry relative="1" as="geometry" />
        </mxCell>
        <mxCell id="XZhqsZLyM7Ng1Bk5a_Lx-37" value="Commission = sales * 0.2" style="rounded=0;whiteSpace=wrap;html=1;" vertex="1" parent="1">
          <mxGeometry x="322" y="830" width="150" height="60" as="geometry" />
        </mxCell>
        <mxCell id="XZhqsZLyM7Ng1Bk5a_Lx-40" style="edgeStyle=orthogonalEdgeStyle;rounded=0;orthogonalLoop=1;jettySize=auto;html=1;entryX=-0.013;entryY=0.664;entryDx=0;entryDy=0;entryPerimeter=0;" edge="1" parent="1" source="XZhqsZLyM7Ng1Bk5a_Lx-5" target="XZhqsZLyM7Ng1Bk5a_Lx-34">
          <mxGeometry relative="1" as="geometry" />
        </mxCell>
        <mxCell id="XZhqsZLyM7Ng1Bk5a_Lx-43" style="edgeStyle=orthogonalEdgeStyle;rounded=0;orthogonalLoop=1;jettySize=auto;html=1;entryX=0.5;entryY=0;entryDx=0;entryDy=0;" edge="1" parent="1" source="XZhqsZLyM7Ng1Bk5a_Lx-32" target="XZhqsZLyM7Ng1Bk5a_Lx-6">
          <mxGeometry relative="1" as="geometry">
            <mxPoint x="801.8799999999999" y="359.94500000000016" as="targetPoint" />
          </mxGeometry>
        </mxCell>
        <mxCell id="XZhqsZLyM7Ng1Bk5a_Lx-49" value="DISPLAY Commision&amp;nbsp;" style="shape=parallelogram;perimeter=parallelogramPerimeter;whiteSpace=wrap;html=1;fixedSize=1;" vertex="1" parent="1">
          <mxGeometry x="750" y="960" width="270" height="60" as="geometry" />
        </mxCell>
        <mxCell id="XZhqsZLyM7Ng1Bk5a_Lx-50" style="edgeStyle=orthogonalEdgeStyle;rounded=0;orthogonalLoop=1;jettySize=auto;html=1;entryX=0.565;entryY=-0.033;entryDx=0;entryDy=0;entryPerimeter=0;" edge="1" parent="1" source="XZhqsZLyM7Ng1Bk5a_Lx-49" target="XZhqsZLyM7Ng1Bk5a_Lx-14">
          <mxGeometry relative="1" as="geometry" />
        </mxCell>
      </root>
    </mxGraphModel>
  </diagram>
</mxfile>
